<svg id="Component_26_1" data-name="Component 26 – 1" xmlns="http://www.w3.org/2000/svg" width="12.482" height="12.261" viewBox="0 0 12.482 12.261">
  <path id="Path_6230" data-name="Path 6230" d="M12.877-3.83a3.262,3.262,0,0,1-.726,2.23,2.47,2.47,0,0,1-1.957.827A2.47,2.47,0,0,1,8.238-1.6a3.262,3.262,0,0,1-.726-2.23,3.214,3.214,0,0,1,.722-2.209,2.485,2.485,0,0,1,1.961-.815,2.485,2.485,0,0,1,1.961.815A3.214,3.214,0,0,1,12.877-3.83ZM9.567-2.636a.7.7,0,0,0,.628.436.7.7,0,0,0,.628-.436,2.6,2.6,0,0,0,.228-1.194,2.536,2.536,0,0,0-.224-1.178.693.693,0,0,0-.632-.42A.7.7,0,0,0,9.567-5a2.527,2.527,0,0,0-.228,1.178A2.579,2.579,0,0,0,9.567-2.636ZM5.76-10.01a3.262,3.262,0,0,1-.726,2.23,2.47,2.47,0,0,1-1.957.827A2.47,2.47,0,0,1,1.121-7.78,3.262,3.262,0,0,1,.4-10.01a3.214,3.214,0,0,1,.722-2.209,2.485,2.485,0,0,1,1.961-.815,2.485,2.485,0,0,1,1.961.815A3.214,3.214,0,0,1,5.76-10.01ZM2.45-8.815a.7.7,0,0,0,.628.436.7.7,0,0,0,.628-.436,2.6,2.6,0,0,0,.228-1.194,2.536,2.536,0,0,0-.224-1.178.693.693,0,0,0-.632-.42.7.7,0,0,0-.628.428A2.527,2.527,0,0,0,2.222-10,2.579,2.579,0,0,0,2.45-8.815ZM3.322-.944h-2.1L9.82-12.708h2.087Z" transform="translate(-0.396 13.034)"/>
</svg>
