<svg id="Component_25_1" data-name="Component 25 – 1" xmlns="http://www.w3.org/2000/svg" width="19.44" height="14.539" viewBox="0 0 19.44 14.539">
  <path id="Subtraction_1" data-name="Subtraction 1" d="M14.446,14.538A2.742,2.742,0,0,1,11.834,12.6l-.04-.126H8.018l-.04.126a2.729,2.729,0,0,1-5.223,0l-.04-.126H0V0H13.138V2.752h2.808L19.44,7.84v4.634H17.1l-.04.126A2.744,2.744,0,0,1,14.446,14.538Zm0-4.127a1.33,1.33,0,1,0,1.3,1.33A1.319,1.319,0,0,0,14.446,10.411Zm-9.08,0a1.33,1.33,0,1,0,1.3,1.33A1.319,1.319,0,0,0,5.366,10.411Zm9.08-1.468a2.744,2.744,0,0,1,2.613,1.937l.04.127H18V8.3L15.2,4.22H13.138V9.265l.249-.106A2.686,2.686,0,0,1,14.446,8.943Zm-9.08,0A2.742,2.742,0,0,1,7.978,10.88l.04.127H11.7V1.468H1.44v9.539H2.714l.04-.127A2.742,2.742,0,0,1,5.366,8.943Z"/>
</svg>
