<svg id="Component_24_1" data-name="Component 24 – 1" xmlns="http://www.w3.org/2000/svg" width="16.984" height="20.288" viewBox="0 0 16.984 20.288">
  <path id="Path_6228" data-name="Path 6228" d="M-228.7-218.231a23.2,23.2,0,0,1-.41,5.527,10.573,10.573,0,0,1-6.486,7.842c-1.875.815-1.3.813-3.177-.005a10.759,10.759,0,0,1-6.663-8.838,45.176,45.176,0,0,1-.219-6.588c0-1.181.094-1.251,1.28-1.3a9.687,9.687,0,0,0,6.595-2.641.741.741,0,0,1,1.191-.013,9.3,9.3,0,0,0,5.947,2.59c.369.026.739.057,1.109.068a.748.748,0,0,1,.832.845C-228.691-219.906-228.7-219.068-228.7-218.231Zm-1.39-1.938c-.214-.022-.365-.043-.517-.053a10.655,10.655,0,0,1-6.335-2.45c-.19-.16-.3-.126-.483.008a18.424,18.424,0,0,1-1.814,1.212,10.488,10.488,0,0,1-4.6,1.228c-.3.015-.432.1-.4.418a7.769,7.769,0,0,1-.016.825,27.111,27.111,0,0,0,.331,5.753,9.188,9.188,0,0,0,5.595,7.006c1.421.634.883.635,2.319-.007a9.112,9.112,0,0,0,5.354-6.039,16.769,16.769,0,0,0,.56-4.144C-230.06-217.655-230.085-218.9-230.085-220.169Z" transform="translate(245.665 224.54)"/>
  <path id="Path_6229" data-name="Path 6229" d="M-175.767-116.957c1.171-1.177,2.275-2.288,3.382-3.4a.716.716,0,0,1,.907-.191.7.7,0,0,1,.11,1.175c-1.019,1.028-2.045,2.049-3.069,3.073-.254.254-.5.512-.763.76a.682.682,0,0,1-1.047.017q-.992-.962-1.953-1.955a.66.66,0,0,1-.012-.966.662.662,0,0,1,.99-.03C-176.734-118-176.276-117.49-175.767-116.957Z" transform="translate(183.246 128.097)"/>
</svg>
