<svg id="Component_23_1" data-name="Component 23 – 1" xmlns="http://www.w3.org/2000/svg" width="23.414" height="20.289" viewBox="0 0 23.414 20.289">
  <path id="Union_72" data-name="Union 72" d="M3.235,19.28c-.437-1.6-.876-3.234-1.3-4.81-.136-.5-.27-1-.4-1.5q-.311-1.158-.62-2.316Q.506,9.133.1,7.611A1.6,1.6,0,0,1,.158,6.346a1.6,1.6,0,0,1,1.057-.678c.724-.189,1.431-.381,2.18-.585l.822-.222v-.2c0-.273,0-.532,0-.792a1.263,1.263,0,0,1,1.3-1.3c.365,0,.762-.005,1.246-.005l1.655,0c.029-.106.058-.212.086-.315.1-.369.193-.732.292-1.093C9.013.391,9.449,0,10.1,0a2.224,2.224,0,0,1,.57.083C13.379.81,16.136,1.549,18.8,2.265l2.484.666c.113.031.226.058.336.088.279.073.564.146.848.235a1.275,1.275,0,0,1,.9,1.582c-.484,1.864-.992,3.756-1.483,5.588l-.036.136a.683.683,0,0,1-.652.57.833.833,0,0,1-.255-.043q-.593-.2-.4-.959c.184-.709.38-1.425.566-2.119q.129-.469.253-.938c.065-.238.126-.474.189-.712.142-.54.287-1.1.448-1.642.038-.124.025-.159.025-.159a.425.425,0,0,0-.156-.063c-2.129-.562-4.29-1.143-6.382-1.705l-1.807-.484c-.3-.081-.6-.161-.9-.24-.8-.212-1.621-.431-2.429-.664a.55.55,0,0,0-.153-.028.059.059,0,0,0-.021,0s-.03.028-.071.175c-1.2,4.543-2.189,8.213-3.1,11.556a.34.34,0,0,0-.019.139.662.662,0,0,0,.162.053l.073.018c3.227.865,6.453,1.728,9.48,2.538l.65.172c.443.113.9.232,1.353.365a.472.472,0,0,0,.148.028.535.535,0,0,0,.048-.131c.123-.5.26-1.006.393-1.5.079-.282.157-.575.235-.863.111-.421.333-.635.661-.635a.838.838,0,0,1,.215.028.616.616,0,0,1,.464.414,1,1,0,0,1-.016.527c-.2.749-.435,1.637-.7,2.548A1.27,1.27,0,0,1,18.9,17.8a1.81,1.81,0,0,1-.277-.025,13.148,13.148,0,0,0-2.258-.2A12.117,12.117,0,0,0,13,18.056c-1.962.573-3.975,1.095-5.918,1.6-.721.189-1.468.381-2.2.575a1.667,1.667,0,0,1-.422.058A1.24,1.24,0,0,1,3.235,19.28ZM3.626,6.433c-.683.182-1.329.351-1.982.524a2.954,2.954,0,0,0-.284.086,2.448,2.448,0,0,0,.07.288L1.82,8.784q.775,2.875,1.552,5.749l.01.043c.371,1.372.752,2.79,1.115,4.19a.674.674,0,0,0,.053.154.4.4,0,0,0,.118-.028c.361-.116.729-.21,1.088-.3.174-.043.355-.088.529-.136l3.209-.863H9.426q-.847,0-1.689,0c-.774,0-1.418,0-2.019.008H5.7a1.494,1.494,0,0,1-1.092-.411,1.5,1.5,0,0,1-.406-1.1c.022-2.341.02-4.719.016-7.022,0-.86,0-1.72,0-2.578V6.279C4.021,6.332,3.823,6.382,3.626,6.433ZM5.6,3.938s-.025.038-.025.209c.01,3.075.01,6.2.008,9.227V15.92a2.57,2.57,0,0,0,.01.3c.061.008.182.008.29.008h6.955c-.137-.038-.275-.075-.411-.111Q9.58,15.358,6.739,14.6a1.342,1.342,0,0,1-1.047-1.816c.083-.315.167-.628.25-.941.043-.158.085-.315.126-.471L8.062,3.927c-.157,0-.312,0-.47,0-.247,0-.491,0-.736,0-.418,0-.759,0-1.075-.015a.211.211,0,0,0-.04,0A.285.285,0,0,0,5.6,3.938Z" transform="translate(-0.001 0)"/>
  <path id="Path_6227" data-name="Path 6227" d="M194.166-181.615c-.1-.174-.273-.341-.294-.524a.384.384,0,0,1,.436-.424.4.4,0,0,1,.421.48c-.038.179-.242.322-.371.481Z" transform="translate(-173.607 194.348)"/>
  <path id="Path_6227_-_Outline" data-name="Path 6227 - Outline" d="M194.444-181.381l-.434-.029-.062-.1c-.027-.045-.061-.092-.1-.143a1.036,1.036,0,0,1-.228-.473.594.594,0,0,1,.142-.471.675.675,0,0,1,.532-.212.7.7,0,0,1,.532.252.606.606,0,0,1,.108.509.958.958,0,0,1-.3.451c-.044.045-.086.088-.119.128Zm-.174-.97a.211.211,0,0,0-.158.057.132.132,0,0,0-.028.109.734.734,0,0,0,.144.256l.035.048.047-.048a.7.7,0,0,0,.175-.222.146.146,0,0,0-.02-.127.242.242,0,0,0-.182-.073Z" transform="translate(-173.588 194.366)"/>
</svg>
