<?xml version="1.0" encoding="iso-8859-1"?>
<!-- Generator: Adobe Illustrator 16.0.0, SVG Export Plug-In . SVG Version: 6.00 Build 0)  -->
<!DOCTYPE svg PUBLIC "-//W3C//DTD SVG 1.1//EN" "http://www.w3.org/Graphics/SVG/1.1/DTD/svg11.dtd">
<svg version="1.1" id="Layer_1" xmlns="http://www.w3.org/2000/svg" xmlns:xlink="http://www.w3.org/1999/xlink" x="0px" y="0px"
	 width="115px" height="135px" viewBox="0 0 115 135" style="enable-background:new 0 0 115 135;" xml:space="preserve">
<g>
	<g>
		<path style="fill:#FFFFFF;" d="M21.453,87.462c-6.939,0-13.794-1.205-17.655-4.802c-6.607-6.155-3.157-14.643-0.375-18.328
			l10.33-15.969l3.076,1.972L6.38,66.477C6.136,66.8,0.414,74.52,6.299,80.002c6.084,5.668,25.54,4.077,33.764,1.063
			c7.564-2.774,56.68-25.604,57.174-25.834l1.549,3.298c-2.027,0.943-49.751,23.125-57.458,25.952
			C37.563,85.861,29.452,87.462,21.453,87.462z"/>
	</g>
	<g>
		<g>
			<path style="fill:#FFFFFF;" d="M15.291,49.349c9.396,5.688,21.691,2.708,27.406-6.644l10.943-17.904
				c2.499-4.089,1.189-9.44-2.92-11.928l-0.964-0.583L47.58,15.85l0.965,0.583c2.137,1.293,2.817,4.075,1.518,6.201L39.12,40.54
				c-4.516,7.389-14.229,9.743-21.652,5.25c-7.424-4.496-9.79-14.162-5.274-21.551L23.137,6.334
				c1.299-2.127,4.094-2.804,6.231-1.511l1.346,0.815l2.177-3.561l-1.347-0.815c-4.109-2.488-9.485-1.185-11.985,2.905L8.616,22.073
				C2.9,31.424,5.895,43.661,15.291,49.349z"/>
		</g>
		<path style="fill:#49C3CC;" d="M40.627,9.502L40.627,9.502c-1.102,1.803-0.526,4.154,1.285,5.25l3.28,1.985
			c1.811,1.097,4.172,0.524,5.273-1.279l0,0c1.103-1.802,0.527-4.153-1.284-5.249l-3.279-1.987
			C44.091,7.128,41.729,7.7,40.627,9.502z"/>
		<path style="fill:#49C3CC;" d="M28.665,2.262L28.665,2.262c-1.102,1.802-0.526,4.153,1.285,5.249l3.279,1.986
			c1.812,1.096,4.173,0.524,5.274-1.278l0,0c1.102-1.803,0.527-4.153-1.284-5.25l-3.28-1.986
			C32.129-0.113,29.767,0.458,28.665,2.262z"/>
	</g>
	<path style="fill:#49C3CC;" d="M100.468,124.531l-6.354,2.242c-1.146,0.405-2.405-0.191-2.812-1.331l-1.518-4.259
		c-0.406-1.141,0.193-2.393,1.339-2.798l6.354-2.243L100.468,124.531z"/>
	<path style="fill:#49C3CC;" d="M114.126,115.459c2.177,7.2,0.148,14.174-4.53,15.576c-4.679,1.401-10.236-3.3-12.415-10.5
		c-2.177-7.2-0.148-14.173,4.529-15.574C106.39,103.559,111.947,108.259,114.126,115.459z"/>
	<path style="fill:#FFFFFF;" d="M112.915,115.822c1.868,6.173,0.283,12.104-3.54,13.248c-3.82,1.145-8.432-2.931-10.299-9.104
		c-1.867-6.172-0.282-12.104,3.54-13.248C106.438,105.574,111.048,109.65,112.915,115.822z"/>
	<g>
		<polygon style="fill:#FFFFFF;" points="6.462,66.361 3.386,64.39 13.753,48.363 16.829,50.335 		"/>
	</g>
	<path style="fill:#49C3CC;" d="M107.107,62.218c-1.941,8.175-6.416,15.61-12.945,21.495L61.05,113.115L28.491,83.704
		c-6.53-5.876-11.006-13.311-12.945-21.486c-1.343-5.668-0.902-9.137-0.79-9.801c1.361-14.943,11.987-25.784,25.293-25.784
		c8.715,0,16.5,4.646,21.02,12.349c4.563-7.598,12.68-12.349,21.537-12.349c13.303,0,23.932,10.84,25.291,25.784
		C108.002,53.082,108.449,56.559,107.107,62.218z"/>
	<path style="fill:#FFFFFF;" d="M108.254,48.099c-0.444-0.089-0.844-0.05-1.193,0.077c0.285,1.224,0.459,2.874,0.668,4.258
		c0.662,0.227,1.498,0.468,1.569,1.174c0.11,1.104-0.423,2.402-0.782,3.417c-0.744,2.11-1.763,4.166-2.912,6.094
		c-2.676,4.489-6.398,8.296-10.458,11.615C85.437,82.669,73.474,88.032,61.5,91.796c-3.609,1.136-7.27,2.124-10.964,2.96
		c-1.761,0.397-3.539,0.817-5.324,1.093c-0.641,0.1-1.297,0.202-1.946,0.115c-0.346-0.047-0.736-0.104-0.736-0.104l-3.519-2.588
		c-0.176,0.192-0.325,0.425-0.434,0.704c-1.256,3.276,1.09,5.798,4.4,6.093c3.572,0.32,7.584-1.046,11.016-1.885
		c7.967-1.949,15.754-4.603,23.223-7.942c12.589-5.629,25.965-13.854,32.662-26.144C112.59,59.124,116.903,49.833,108.254,48.099z"
		/>
	<path style="fill:#FFFFFF;" d="M93.488,120.066c-7.884,2.915-15.059,7.661-23.215,9.839c-7.001,1.868-15.642,1.668-20.31-4.688
		c-1.742-2.374-2.835-5.429-2.259-8.381c0.599-3.068,2.896-5.327,5.53-6.829c5.752-3.285,12.704-4.203,18.869-6.514
		c6.677-2.503,12.584-6.135,17.476-11.27c3.313-2.808,1.571-5.971,1.571-5.971l-1.424,1.235l-0.438,0.413
		c-1.969,1.653-7.286,6.051-9.515,7.215c-3.371,2.215-7.059,3.938-11.033,5.289c-6.579,2.235-14.144,3.268-19.776,7.596
		c-5.773,4.436-6.939,11.896-3.273,18.097c4.108,6.95,12.146,9.573,19.91,8.76c10.545-1.103,19.243-7.296,28.966-10.89
		C96.999,123.068,95.947,119.156,93.488,120.066z"/>
	<g>
		<path style="fill:#004D7A;" d="M48.012,56.886c1.103-1.56,2.473-2.882,4.072-3.933c0.405-0.267,0.517-0.809,0.249-1.212
			s-0.813-0.515-1.218-0.249c-1.784,1.171-3.312,2.648-4.541,4.386c-0.28,0.396-0.185,0.941,0.212,1.22
			c0.155,0.108,0.33,0.159,0.506,0.159C47.568,57.257,47.841,57.127,48.012,56.886z"/>
		<path style="fill:#004D7A;" d="M80.076,58.792c-0.487,0.483-1.075,0.901-1.716,1.235c0.55,1.756,0.847,3.621,0.847,5.555
			c0,2.588-0.531,5.053-1.491,7.293l-0.892-0.469c-0.216-0.11-0.482-0.03-0.595,0.184c-0.114,0.214-0.031,0.479,0.184,0.591
			l0.939,0.493c-0.314,0.649-0.67,1.273-1.056,1.877l-1.955-1.472c-0.193-0.146-0.47-0.108-0.617,0.085
			c-0.146,0.192-0.107,0.467,0.086,0.613l1.997,1.502c-0.372,0.529-0.771,1.038-1.195,1.524l-0.94-0.836
			c-0.183-0.161-0.46-0.145-0.621,0.035c-0.162,0.182-0.147,0.458,0.035,0.619l0.934,0.831c-0.477,0.496-0.978,0.968-1.506,1.412
			l-1.524-1.787c-0.155-0.185-0.434-0.207-0.618-0.05c-0.185,0.156-0.208,0.434-0.052,0.616l1.507,1.768
			c-0.551,0.423-1.127,0.815-1.727,1.174l-0.907-1.6c-0.12-0.211-0.389-0.282-0.601-0.164c-0.21,0.118-0.284,0.386-0.165,0.596
			l0.911,1.603c-0.623,0.335-1.266,0.631-1.927,0.896l-0.603-1.86c-0.074-0.229-0.321-0.354-0.554-0.28
			c-0.23,0.073-0.356,0.32-0.283,0.551l0.615,1.896c-0.7,0.242-1.418,0.446-2.153,0.604l-0.216-0.943
			c-0.054-0.235-0.289-0.384-0.525-0.33c-0.237,0.055-0.386,0.29-0.332,0.524l0.21,0.915c-1.017,0.17-2.061,0.264-3.124,0.264
			c-10.347,0-18.764-8.378-18.764-18.674c0-10.297,8.417-18.674,18.764-18.674c1.667,0,3.283,0.22,4.823,0.629
			c0.36-0.779,0.837-1.499,1.413-2.071l0.432-0.432c-2.103-0.675-4.341-1.044-6.668-1.044c-11.98,0-21.695,9.669-21.695,21.592
			c0,11.924,9.715,21.591,21.695,21.591c11.979,0,21.692-9.667,21.692-21.591c0-2.64-0.477-5.167-1.347-7.503L80.076,58.792z"/>
		<path style="fill:#004D7A;" d="M87.038,46.182c-0.257-0.718-0.937-1.199-1.815-1.287l-4.157-0.388l-0.42-4.169
			c-0.134-1.313-1.08-1.911-1.903-1.911c-0.386,0-0.965,0.119-1.538,0.69l-8.449,8.411c-0.73,0.726-1.26,1.998-1.26,3.024v4.803
			c0,0.271,0.055,0.526,0.131,0.771l-4.281,4.388c-0.855-0.488-1.844-0.768-2.899-0.768c-3.239,0-5.863,2.613-5.863,5.836
			c0,3.222,2.624,5.836,5.863,5.836c3.236,0,5.862-2.614,5.862-5.836c0-1.112-0.318-2.148-0.861-3.033l4.478-4.589
			c0.07,0.006,0.139,0.021,0.211,0.021h4.827c1.034,0,2.311-0.527,3.04-1.252l8.448-8.408
			C87.075,47.699,87.294,46.898,87.038,46.182z M70.428,50.553c0-0.258,0.218-0.78,0.402-0.961l7.09-7.06l0.228,2.267
			c0.016,0.155,0.048,0.307,0.089,0.455l-7.809,8.003V50.553z M64.548,65.583c0,2.252-1.841,4.083-4.103,4.083
			c-2.263,0-4.104-1.831-4.104-4.083c0-2.252,1.842-4.085,4.104-4.085c0.573,0,1.121,0.118,1.617,0.331l-2.67,2.737
			c-0.563,0.578-0.549,1.501,0.031,2.062c0.285,0.276,0.652,0.413,1.021,0.413c0.381,0,0.764-0.148,1.051-0.442l2.668-2.736
			C64.408,64.388,64.548,64.968,64.548,65.583z M75.93,54.667c-0.18,0.178-0.711,0.398-0.966,0.398H72.75l7.574-7.763
			c0.138,0.035,0.276,0.066,0.42,0.081l2.276,0.227L75.93,54.667z"/>
		<path style="fill:#004D7A;" d="M60.445,53.911c1.451,0,2.835,0.276,4.118,0.759v-1.869c-1.298-0.415-2.682-0.64-4.118-0.64
			c-7.448,0-13.485,6.01-13.485,13.421c0,7.412,6.037,13.423,13.485,13.423c7.446,0,13.484-6.011,13.484-13.423
			c0-1.646-0.299-3.225-0.845-4.682h-1.906c0.635,1.435,0.992,3.016,0.992,4.682c0,6.436-5.26,11.67-11.726,11.67
			s-11.727-5.234-11.727-11.67C48.719,59.147,53.979,53.911,60.445,53.911z"/>
	</g>
</g>
</svg>
