<?xml version="1.0" encoding="iso-8859-1"?>
<!-- Uploaded to: SVG Repo, www.svgrepo.com, Generator: SVG Repo Mixer Tools -->
<svg height="800px" width="800px" version="1.1" id="Layer_1" xmlns="http://www.w3.org/2000/svg" xmlns:xlink="http://www.w3.org/1999/xlink" 
	 viewBox="0 0 512 512" xml:space="preserve">
<path style="fill:#9ED368;" d="M512,256.006C512,397.402,397.394,512.004,256.004,512C114.606,512.004,0,397.402,0,256.006
	C-0.007,114.61,114.606,0,256.004,0C397.394,0,512,114.614,512,256.006z"/>
<path style="fill:#8BC052;" d="M508.189,299.821c-0.236-0.258-0.526-0.582-0.632-0.688c-0.159-0.159-0.329-0.242-0.489-0.396
	c-0.478-0.544-87.801-87.807-87.963-87.961c-0.477-0.544-0.857-0.95-1.027-1.122c-6.868-6.868-14.773-8.625-18.594-9.479
	c-1.189-0.263-2.411-0.322-3.618-0.478c-0.023-0.025-0.049-0.048-0.073-0.073c-0.484-0.522-29.839-29.819-30.332-30.332
	c-25.148-27.118-64.931-43.959-109.462-43.959c-55.974,0-105.479,30.154-125.658,74.789c-5.818-1.25-11.982-1.241-17.842,0.06
	c-3.806,0.846-11.711,2.603-18.579,9.471c-1.239,1.239-12.06,12.601-9.567,28.81c1.255,8.19,5.509,14.784,10.938,19.638
	c0.506,0.508,31.902,31.906,31.93,31.935c-0.748,8.5-2.356,19.919-5.475,35.424c-0.249,1.223-0.182,2.492,0.189,3.682
	c2.807,9.06,6.567,15.665,11.526,20.198c0.519,0.549,17.573,17.662,18.005,18.065V379.2c0,2.455,1.263,4.531,3.091,5.89
	c0.437,0.587,123.775,123.924,124.362,124.361c0.394,0.53,0.857,0.965,1.37,1.371C395.694,499.964,488.745,412.515,508.189,299.821z
	"/>
<path style="fill:#F4F6F9;" d="M418.079,209.654c-6.868-6.868-14.773-8.626-18.594-9.479c-4.628-1.03-9.45-1.234-14.154-0.663
	C366.254,155.236,315.34,125.333,256,125.333c-55.973,0-105.479,30.154-125.658,74.789c-5.818-1.25-11.982-1.242-17.843,0.06
	c-3.806,0.846-11.711,2.603-18.579,9.472c-1.239,1.239-12.061,12.601-9.567,28.81c2.458,16.034,16.355,26.053,28.226,28.576
	c5.68,1.188,9.698,0.43,12.359-0.08c0.372-0.066,0.715-0.154,1.043-0.204c1.174,1.998,5.024,12.658-4.237,58.705
	c-0.247,1.225-0.182,2.494,0.19,3.682c5.41,17.464,14.262,25.98,28.692,27.614c0.277,0.029,0.561,0.044,0.838,0.044v22.4
	c0,4.127,3.34,7.467,7.467,7.467s7.467-3.34,7.467-7.467v-22.4h179.2v22.4c0,4.127,3.34,7.467,7.467,7.467s7.467-3.34,7.467-7.467
	v-22.4c0.277,0,0.561-0.015,0.838-0.044c14.437-1.633,23.282-10.15,28.692-27.614c0.372-1.196,0.437-2.458,0.19-3.682
	c-9.261-46.047-5.41-56.707-4.237-58.705c0.329,0.051,0.671,0.139,1.043,0.204c2.661,0.511,6.672,1.268,12.359,0.08
	c11.871-2.523,25.769-12.542,28.226-28.569C430.14,222.254,419.318,210.894,418.079,209.654z M256,140.267
	c52.745,0,97.879,25.681,115.055,63.821c-2.676,1.469-5.04,3.11-7.35,4.736c-8.305,5.841-13.709,12.359-16.778,16.8
	c-3.267,4.725-6.081,10.325-8.349,16.646c-5.651,15.677-7.35,34.358-7.78,47.33H181.202c-0.43-12.972-2.129-31.653-7.773-47.323
	c-2.275-6.33-5.089-11.93-8.364-16.669c-4.426-6.373-10.223-12.177-16.778-16.793c-1.363-0.959-2.764-1.914-4.213-2.849
	C161.932,166.754,206.02,140.267,256,140.267z M412.887,236.203c-1.481,9.632-10.719,14.985-16.574,16.224
	c-2.713,0.569-4.448,0.247-6.446-0.131c-2.545-0.496-6.037-1.159-10.004,0.635c-12.483,5.629-13.846,26.987-4.638,73.551
	c-4.703,13.796-10.624,14.867-15.116,15.386H151.889c-4.484-0.517-10.413-1.589-15.116-15.386
	c9.21-46.564,7.845-67.922-4.638-73.551c-3.967-1.794-7.459-1.123-10.004-0.635c-2.005,0.386-3.756,0.715-6.446,0.131
	c-5.855-1.239-15.093-6.592-16.574-16.231c-1.386-9.012,5.309-15.918,5.366-15.983c3.792-3.792,8.466-4.834,11.273-5.454
	c2.676-0.605,6.876-1.093,11.674-0.007c4.9,1.101,7.991,3.274,12.279,6.292c5.134,3.602,9.662,8.13,13.089,13.067
	c3.15,4.564,5.315,9.706,6.585,13.22c6.081,16.91,7.014,38.42,7.022,49.744c0.007,4.119,3.347,7.459,7.467,7.459h164.267
	c4.119,0,7.459-3.34,7.467-7.459c0.007-11.324,0.941-32.834,7.029-49.751c1.262-3.507,3.427-8.647,6.577-13.205
	c2.384-3.442,6.585-8.502,13.095-13.082c4.281-3.011,7.372-5.184,12.264-6.286c4.813-1.079,8.998-0.591,11.689,0.007
	c2.8,0.62,7.474,1.663,11.259,5.446C407.579,220.278,414.273,227.183,412.887,236.203z"/>
</svg>