<?xml version="1.0" encoding="iso-8859-1"?>
<!-- Generator: Adobe Illustrator 16.0.0, SVG Export Plug-In . SVG Version: 6.00 Build 0)  -->
<!DOCTYPE svg PUBLIC "-//W3C//DTD SVG 1.1//EN" "http://www.w3.org/Graphics/SVG/1.1/DTD/svg11.dtd">
<svg version="1.1" id="Layer_1" xmlns="http://www.w3.org/2000/svg" xmlns:xlink="http://www.w3.org/1999/xlink" x="0px" y="0px"
	 width="115px" height="135px" viewBox="0 0 115 135" style="enable-background:new 0 0 115 135;" xml:space="preserve">
<g>
	<g>
		<path style="fill:#FFFFFF;" d="M21.453,87.462c-6.939,0-13.794-1.205-17.655-4.802c-6.607-6.155-3.157-14.643-0.375-18.328
			l10.33-15.969l3.076,1.972L6.38,66.477C6.136,66.8,0.414,74.52,6.299,80.002c6.084,5.668,25.54,4.077,33.764,1.063
			c7.564-2.774,56.68-25.604,57.174-25.834l1.549,3.298c-2.027,0.943-49.751,23.125-57.458,25.952
			C37.563,85.861,29.452,87.462,21.453,87.462z"/>
	</g>
	<g>
		<g>
			<path style="fill:#FFFFFF;" d="M15.291,49.349c9.396,5.688,21.691,2.708,27.406-6.644l10.943-17.904
				c2.499-4.089,1.189-9.44-2.92-11.928l-0.964-0.583L47.58,15.85l0.965,0.583c2.137,1.293,2.817,4.075,1.518,6.201L39.12,40.54
				c-4.516,7.389-14.229,9.743-21.652,5.25c-7.424-4.496-9.79-14.162-5.274-21.551L23.137,6.334
				c1.299-2.127,4.094-2.804,6.231-1.511l1.346,0.815l2.177-3.561l-1.347-0.815c-4.109-2.488-9.485-1.185-11.985,2.905L8.616,22.073
				C2.9,31.424,5.895,43.661,15.291,49.349z"/>
		</g>
		<path style="fill:#49C3CC;" d="M40.627,9.502L40.627,9.502c-1.102,1.803-0.526,4.154,1.285,5.25l3.28,1.985
			c1.811,1.097,4.172,0.524,5.273-1.279l0,0c1.103-1.802,0.527-4.153-1.284-5.249l-3.279-1.987
			C44.091,7.128,41.729,7.7,40.627,9.502z"/>
		<path style="fill:#49C3CC;" d="M28.665,2.262L28.665,2.262c-1.102,1.802-0.526,4.153,1.285,5.249l3.279,1.986
			c1.812,1.096,4.173,0.524,5.274-1.278l0,0c1.102-1.803,0.527-4.153-1.284-5.25l-3.28-1.986
			C32.129-0.113,29.767,0.458,28.665,2.262z"/>
	</g>
	<path style="fill:#49C3CC;" d="M100.468,124.531l-6.354,2.242c-1.146,0.405-2.405-0.191-2.812-1.331l-1.518-4.259
		c-0.406-1.141,0.193-2.393,1.339-2.798l6.354-2.243L100.468,124.531z"/>
	<path style="fill:#49C3CC;" d="M114.126,115.459c2.177,7.2,0.148,14.174-4.53,15.576c-4.679,1.401-10.236-3.3-12.415-10.5
		c-2.177-7.2-0.148-14.173,4.529-15.574C106.39,103.559,111.947,108.259,114.126,115.459z"/>
	<path style="fill:#FFFFFF;" d="M112.915,115.822c1.868,6.173,0.283,12.104-3.54,13.248c-3.82,1.145-8.432-2.931-10.299-9.104
		c-1.867-6.172-0.282-12.104,3.54-13.248C106.438,105.574,111.048,109.65,112.915,115.822z"/>
	<g>
		<polygon style="fill:#FFFFFF;" points="6.462,66.361 3.386,64.39 13.753,48.363 16.829,50.335 		"/>
	</g>
	<path style="fill:#49C3CC;" d="M107.107,62.218c-1.941,8.175-6.416,15.61-12.945,21.495L61.05,113.115L28.491,83.704
		c-6.53-5.876-11.006-13.311-12.945-21.486c-1.343-5.668-0.902-9.137-0.79-9.801c1.361-14.943,11.987-25.784,25.293-25.784
		c8.715,0,16.5,4.646,21.02,12.349c4.563-7.598,12.68-12.349,21.537-12.349c13.303,0,23.932,10.84,25.291,25.784
		C108.002,53.082,108.449,56.559,107.107,62.218z"/>
	<path style="fill:#FFFFFF;" d="M108.254,48.099c-0.444-0.089-0.844-0.05-1.193,0.077c0.285,1.224,0.459,2.874,0.668,4.258
		c0.662,0.227,1.498,0.468,1.569,1.174c0.11,1.104-0.423,2.402-0.782,3.417c-0.744,2.11-1.763,4.166-2.912,6.094
		c-2.676,4.489-6.398,8.296-10.458,11.615C85.437,82.669,73.474,88.032,61.5,91.796c-3.609,1.136-7.27,2.124-10.964,2.96
		c-1.761,0.397-3.539,0.817-5.324,1.093c-0.641,0.1-1.297,0.202-1.946,0.115c-0.346-0.047-0.736-0.104-0.736-0.104l-3.519-2.588
		c-0.176,0.192-0.325,0.425-0.434,0.704c-1.256,3.276,1.09,5.798,4.4,6.093c3.572,0.32,7.584-1.046,11.016-1.885
		c7.967-1.949,15.754-4.603,23.223-7.942c12.589-5.629,25.965-13.854,32.662-26.144C112.59,59.124,116.903,49.833,108.254,48.099z"
		/>
	<path style="fill:#FFFFFF;" d="M93.488,120.066c-7.884,2.915-15.059,7.661-23.215,9.839c-7.001,1.868-15.642,1.668-20.31-4.688
		c-1.742-2.374-2.835-5.429-2.259-8.381c0.599-3.068,2.896-5.327,5.53-6.829c5.752-3.285,12.704-4.203,18.869-6.514
		c6.677-2.503,12.584-6.135,17.476-11.27c3.313-2.808,1.571-5.971,1.571-5.971l-1.424,1.235l-0.438,0.413
		c-1.969,1.653-7.286,6.051-9.515,7.215c-3.371,2.215-7.059,3.938-11.033,5.289c-6.579,2.235-14.144,3.268-19.776,7.596
		c-5.773,4.436-6.939,11.896-3.273,18.097c4.108,6.95,12.146,9.573,19.91,8.76c10.545-1.103,19.243-7.296,28.966-10.89
		C96.999,123.068,95.947,119.156,93.488,120.066z"/>
	<g>
		<path style="fill:#004D7A;" d="M36.447,61.94c2.555-3.39,5.321-6.145,8.089-8.262c5.96-4.661,12.346-6.992,18.944-6.992l0,0
			c6.386,0,12.772,2.331,18.945,6.992c2.768,2.118,5.533,4.872,8.089,8.262l0.637,0.635l-0.637,0.848
			c-2.556,3.39-5.321,5.932-8.089,8.261c-6.173,4.661-12.56,6.993-18.945,6.993l0,0c-6.599,0-12.984-2.332-18.944-6.993
			c-2.768-2.329-5.534-4.872-8.089-8.261l-0.638-0.848L36.447,61.94z M70.292,50.29c1.065,0.634,2.341,1.481,3.193,2.329l0,0
			c2.554,2.542,4.257,6.145,4.257,9.958c0,4.024-1.703,7.627-4.257,10.168l0,0c-0.853,0.848-1.916,1.695-3.193,2.33
			c3.619-1.059,7.024-2.965,10.431-5.508c2.342-1.907,4.683-4.237,7.024-6.991c-2.342-2.542-4.683-4.873-7.024-6.78
			C77.316,53.042,73.911,51.347,70.292,50.29z M56.456,75.074c-1.064-0.635-2.128-1.482-2.979-2.33l0,0
			c-2.768-2.541-4.258-6.144-4.258-10.168c0-3.813,1.49-7.415,4.258-9.958l0,0c0.852-0.848,1.915-1.694,2.979-2.329
			c-3.405,1.058-7.024,2.753-10.217,5.506c-2.555,1.907-4.896,4.237-7.024,6.78c2.129,2.753,4.47,5.084,7.024,6.991
			C49.432,72.109,53.051,74.016,56.456,75.074z M71.144,54.949L71.144,54.949c-1.915-1.906-4.683-3.178-7.663-3.178
			c-2.979,0-5.747,1.272-7.876,3.178l0,0c-1.916,1.907-3.192,4.661-3.192,7.627c0,3.178,1.276,5.719,3.192,7.839l0,0
			c2.129,1.905,4.896,3.177,7.876,3.177c2.98,0,5.748-1.271,7.663-3.177l0,0c1.916-2.12,3.193-4.661,3.193-7.839
			C74.337,59.61,73.06,56.855,71.144,54.949z"/>
		<path style="fill:#004D7A;" d="M69.654,60.669c0.212,0.636,0.212,1.271,0.212,1.907c0,3.602-2.768,6.568-6.386,6.568
			c-3.619,0-6.599-2.966-6.599-6.568c0-3.602,2.979-6.356,6.599-6.356c-0.426,0.426-0.639,1.271-0.639,1.906
			c0,2.119,1.703,3.814,4.046,3.814C67.951,61.94,69.016,61.516,69.654,60.669z"/>
	</g>
</g>
</svg>
